<?xml version="1.0" standalone="no"?>
<!DOCTYPE svg PUBLIC "-//W3C//DTD SVG 20010904//EN"
 "http://www.w3.org/TR/2001/REC-SVG-20010904/DTD/svg10.dtd">
<svg version="1.0" xmlns="http://www.w3.org/2000/svg"
 width="116.000000pt" height="75.000000pt" viewBox="0 0 116.000000 75.000000"
 preserveAspectRatio="xMidYMid meet">

<g transform="translate(0.000000,75.000000) scale(0.100000,-0.100000)"
fill="#000000" stroke="none">
<path d="M349 705 c-1 -3 -2 -10 -3 -15 0 -6 -6 -14 -13 -18 -6 -4 21 -7 60
-8 43 0 53 1 24 3 -44 4 -47 6 -43 26 3 12 3 16 0 10 -3 -7 -10 -13 -15 -13
-6 0 -7 5 -4 10 3 6 4 10 1 10 -3 0 -7 -2 -7 -5z"/>
<path d="M795 690 c6 -19 2 -19 -159 -13 l-166 6 0 -200 0 -200 56 -22 56 -21
59 21 59 22 0 188 0 189 53 2 c28 1 63 1 77 0 14 -1 20 2 14 6 -6 4 -13 15
-17 25 -9 25 -40 23 -32 -3z m-161 -109 c22 -24 32 -126 14 -137 -11 -7 -20
-9 -64 -16 -6 -1 -10 -21 -9 -48 1 -44 0 -46 -22 -42 -13 2 -26 8 -29 13 -7
12 -6 227 1 239 11 18 91 11 109 -9z"/>
<path d="M576 516 c1 -19 6 -31 15 -31 20 0 19 57 -1 60 -11 2 -15 -6 -14 -29z"/>
<path d="M48 169 c-5 -82 2 -139 18 -139 9 0 14 12 14 35 0 27 4 35 18 35 28
0 42 20 42 60 0 44 -15 60 -56 60 -31 0 -32 -1 -36 -51z m60 -12 c2 -19 -1
-27 -12 -27 -11 0 -16 10 -16 31 0 38 24 35 28 -4z"/>
<path d="M180 125 c0 -78 3 -95 15 -95 12 0 15 17 15 95 0 78 -3 95 -15 95
-12 0 -15 -17 -15 -95z"/>
<path d="M247 214 c-10 -11 3 -24 24 -24 24 0 24 -4 -6 -84 -14 -37 -25 -69
-25 -71 0 -3 20 -5 45 -5 49 0 60 14 20 24 l-25 6 22 53 c11 28 23 64 26 80 4
26 2 27 -35 27 -22 0 -43 -3 -46 -6z"/>
<path d="M360 205 c0 -9 9 -15 25 -15 14 0 25 -3 25 -7 0 -4 -12 -38 -27 -75
-14 -38 -24 -70 -22 -72 5 -5 46 -9 72 -7 19 1 24 21 5 21 -36 1 -38 16 -13
78 35 86 34 92 -20 92 -33 0 -45 -4 -45 -15z"/>
<path d="M501 143 c-7 -43 -15 -86 -17 -95 -4 -12 0 -18 11 -18 9 0 19 9 22
20 7 26 33 26 33 0 0 -14 7 -20 21 -20 15 0 19 5 15 18 -2 9 -10 52 -17 95
-11 69 -14 77 -34 77 -20 0 -23 -8 -34 -77z m36 -35 c-3 -8 -6 -5 -6 6 -1 11
2 17 5 13 3 -3 4 -12 1 -19z"/>
<path d="M620 125 l0 -95 41 0 c43 0 52 22 11 28 -20 3 -22 9 -22 83 0 64 -3
79 -15 79 -12 0 -15 -17 -15 -95z"/>
<path d="M740 131 c0 -88 1 -92 25 -103 21 -9 28 -8 45 7 17 15 20 31 20 102
0 67 -3 83 -15 83 -12 0 -15 -16 -15 -80 0 -63 -3 -80 -15 -80 -11 0 -15 18
-17 77 -2 50 -7 78 -15 81 -10 3 -13 -19 -13 -87z"/>
<path d="M880 126 c0 -79 3 -96 15 -96 11 0 15 11 15 42 0 45 9 44 26 -5 6
-18 18 -33 27 -35 15 -3 17 8 17 92 0 79 -3 96 -15 96 -11 0 -15 -12 -16 -47
l0 -48 -17 45 c-10 25 -25 46 -35 48 -15 3 -17 -7 -17 -92z"/>
<path d="M1041 153 c-6 -37 -14 -80 -17 -96 -4 -20 -2 -27 10 -27 8 0 18 9 21
20 8 26 25 26 32 0 3 -11 12 -20 19 -20 17 0 17 32 0 120 -10 53 -16 66 -33
68 -18 3 -22 -4 -32 -65z m36 -45 c-3 -8 -6 -5 -6 6 -1 11 2 17 5 13 3 -3 4
-12 1 -19z"/>
</g>
</svg>
